<svg width="20" height="20" viewBox="0 0 20 20" fill="none" xmlns="http://www.w3.org/2000/svg">
<path fill-rule="evenodd" clip-rule="evenodd" d="M13.7615 17.9167H6.80495C4.24965 17.9167 2.28931 16.9937 2.84614 13.279L3.4945 8.24466C3.83775 6.39111 5.02005 5.68173 6.05743 5.68173H14.5395C15.5921 5.68173 16.7058 6.44451 17.1024 8.24466L17.7508 13.279C18.2237 16.5742 16.3168 17.9167 13.7615 17.9167Z" stroke="#130F26" stroke-width="1.5" stroke-linecap="round" stroke-linejoin="round"/>
<path d="M13.8759 5.49867C13.8759 3.51027 12.264 1.89836 10.2756 1.89836V1.89836C9.31809 1.89431 8.39842 2.27183 7.71993 2.94746C7.04144 3.62309 6.66003 4.54116 6.66003 5.49867H6.66003" stroke="#130F26" stroke-width="1.5" stroke-linecap="round" stroke-linejoin="round"/>
<path d="M12.747 9.25154H12.7088" stroke="#130F26" stroke-width="1.5" stroke-linecap="round" stroke-linejoin="round"/>
<path d="M7.88807 9.25154H7.84993" stroke="#130F26" stroke-width="1.5" stroke-linecap="round" stroke-linejoin="round"/>
</svg>
