<svg width="16" height="16" viewBox="0 0 16 16" fill="none" xmlns="http://www.w3.org/2000/svg">
<path d="M6.09584 13.8547V11.8102C6.09583 11.2921 6.51713 10.8711 7.03898 10.8679H8.95509C9.47927 10.8679 9.9042 11.2898 9.9042 11.8102V13.8488C9.90419 14.2982 10.2694 14.6634 10.722 14.6666H12.0292C12.6398 14.6682 13.2259 14.4285 13.6581 14.0005C14.0904 13.5724 14.3334 12.9912 14.3334 12.385V6.57723C14.3333 6.08759 14.1147 5.62314 13.7364 5.309L9.29534 1.78284C8.51903 1.16608 7.41027 1.186 6.65695 1.83025L2.31136 5.309C1.91518 5.61388 1.67839 6.0797 1.66669 6.57723V12.3791C1.66669 13.6425 2.69827 14.6666 3.9708 14.6666H5.24821C5.46614 14.6682 5.67568 14.5834 5.83034 14.4309C5.98499 14.2785 6.07197 14.0711 6.07196 13.8547H6.09584Z" fill="#5570F1"/>
</svg>
